# Blender v2.79 (sub 0) OBJ File: ''
# www.blender.org
mtllib arrow111.mtl
o Cylinder
v 0.000000 4.000000 -0.500091
v 0.097545 0.000000 -0.490483
v 0.000000 0.000000 -0.500092
v 0.097545 4.000000 -0.490482
v 0.191342 0.000000 -0.462025
v 0.191342 4.000000 -0.462024
v 0.277785 0.000000 -0.415811
v 0.277785 4.000000 -0.415810
v 0.353553 0.000000 -0.353619
v 0.353553 4.000000 -0.353618
v 0.415735 0.000000 -0.277836
v 0.415735 4.000000 -0.277835
v 0.461940 0.000000 -0.191377
v 0.461940 4.000000 -0.191376
v 0.490393 0.000000 -0.097563
v 0.490393 4.000000 -0.097562
v 0.500000 0.000000 0.000000
v 0.500000 4.000000 0.000001
v 0.490393 -0.000000 0.097563
v 0.490393 4.000000 0.097564
v 0.461940 -0.000000 0.191377
v 0.461940 4.000000 0.191378
v 0.415735 -0.000000 0.277836
v 0.415735 4.000000 0.277837
v 0.353553 -0.000000 0.353619
v 0.353553 4.000000 0.353620
v 0.277785 -0.000000 0.415811
v 0.277785 4.000000 0.415812
v 0.191342 -0.000000 0.462025
v 0.191342 4.000000 0.462026
v 0.097545 -0.000000 0.490483
v 0.097545 4.000000 0.490484
v 0.000000 -0.000000 0.500092
v 0.000000 4.000000 0.500093
v -0.097545 -0.000000 0.490483
v -0.097545 4.000000 0.490484
v -0.191342 -0.000000 0.462025
v -0.191342 4.000000 0.462026
v -0.277785 -0.000000 0.415811
v -0.277785 4.000000 0.415812
v -0.353554 -0.000000 0.353618
v -0.353554 4.000000 0.353619
v -0.415735 -0.000000 0.277836
v -0.415735 4.000000 0.277837
v -0.461940 -0.000000 0.191377
v -0.461940 4.000000 0.191378
v -0.490393 -0.000000 0.097563
v -0.490393 4.000000 0.097564
v -0.500000 0.000000 0.000000
v -0.500000 4.000000 0.000001
v -0.490393 0.000000 -0.097564
v -0.490393 4.000000 -0.097563
v -0.461940 0.000000 -0.191377
v -0.461940 4.000000 -0.191376
v -0.415734 0.000000 -0.277837
v -0.415734 4.000000 -0.277836
v -0.353553 0.000000 -0.353619
v -0.353553 4.000000 -0.353618
v -0.277785 0.000000 -0.415812
v -0.277785 4.000000 -0.415811
v -0.191341 0.000000 -0.462025
v -0.191341 4.000000 -0.462024
v -0.097544 0.000000 -0.490483
v -0.097544 4.000000 -0.490482
vn 0.0980 0.0000 -0.9952
vn 0.2903 0.0000 -0.9569
vn 0.4715 0.0000 -0.8819
vn 0.6345 0.0000 -0.7730
vn 0.7731 0.0000 -0.6343
vn 0.8820 0.0000 -0.4713
vn 0.9570 0.0000 -0.2902
vn 0.9952 0.0000 -0.0980
vn 0.9952 -0.0000 0.0980
vn 0.9570 -0.0000 0.2902
vn 0.8820 -0.0000 0.4713
vn 0.7731 -0.0000 0.6343
vn 0.6345 -0.0000 0.7730
vn 0.4715 -0.0000 0.8819
vn 0.2903 -0.0000 0.9569
vn 0.0980 -0.0000 0.9952
vn -0.0980 -0.0000 0.9952
vn -0.2903 -0.0000 0.9569
vn -0.4715 -0.0000 0.8819
vn -0.6345 -0.0000 0.7730
vn -0.7731 -0.0000 0.6343
vn -0.8820 -0.0000 0.4713
vn -0.9570 -0.0000 0.2902
vn -0.9952 -0.0000 0.0980
vn -0.9952 0.0000 -0.0980
vn -0.9570 0.0000 -0.2902
vn -0.8820 0.0000 -0.4713
vn -0.7731 0.0000 -0.6343
vn -0.6345 0.0000 -0.7730
vn -0.4715 0.0000 -0.8819
vn 0.0000 1.0000 0.0000
vn -0.2903 0.0000 -0.9569
vn -0.0980 0.0000 -0.9952
vn -0.0000 -1.0000 -0.0000
usemtl None
s 1
f 1//1 2//1 3//1
f 4//2 5//2 2//2
f 6//3 7//3 5//3
f 8//4 9//4 7//4
f 10//5 11//5 9//5
f 12//6 13//6 11//6
f 14//7 15//7 13//7
f 16//8 17//8 15//8
f 18//9 19//9 17//9
f 20//10 21//10 19//10
f 22//11 23//11 21//11
f 24//12 25//12 23//12
f 26//13 27//13 25//13
f 28//14 29//14 27//14
f 30//15 31//15 29//15
f 32//16 33//16 31//16
f 34//17 35//17 33//17
f 36//18 37//18 35//18
f 38//19 39//19 37//19
f 40//20 41//20 39//20
f 42//21 43//21 41//21
f 44//22 45//22 43//22
f 46//23 47//23 45//23
f 48//24 49//24 47//24
f 50//25 51//25 49//25
f 52//26 53//26 51//26
f 54//27 55//27 53//27
f 56//28 57//28 55//28
f 58//29 59//29 57//29
f 60//30 61//30 59//30
f 54//31 38//31 22//31
f 62//32 63//32 61//32
f 64//33 3//33 63//33
f 15//34 31//34 47//34
f 1//1 4//1 2//1
f 4//2 6//2 5//2
f 6//3 8//3 7//3
f 8//4 10//4 9//4
f 10//5 12//5 11//5
f 12//6 14//6 13//6
f 14//7 16//7 15//7
f 16//8 18//8 17//8
f 18//9 20//9 19//9
f 20//10 22//10 21//10
f 22//11 24//11 23//11
f 24//12 26//12 25//12
f 26//13 28//13 27//13
f 28//14 30//14 29//14
f 30//15 32//15 31//15
f 32//16 34//16 33//16
f 34//17 36//17 35//17
f 36//18 38//18 37//18
f 38//19 40//19 39//19
f 40//20 42//20 41//20
f 42//21 44//21 43//21
f 44//22 46//22 45//22
f 46//23 48//23 47//23
f 48//24 50//24 49//24
f 50//25 52//25 51//25
f 52//26 54//26 53//26
f 54//27 56//27 55//27
f 56//28 58//28 57//28
f 58//29 60//29 59//29
f 60//30 62//30 61//30
f 6//31 4//31 1//31
f 1//31 64//31 6//31
f 64//31 62//31 6//31
f 62//31 60//31 58//31
f 58//31 56//31 54//31
f 54//31 52//31 50//31
f 50//31 48//31 54//31
f 48//31 46//31 54//31
f 46//31 44//31 38//31
f 44//31 42//31 38//31
f 42//31 40//31 38//31
f 38//31 36//31 34//31
f 34//31 32//31 30//31
f 30//31 28//31 26//31
f 26//31 24//31 22//31
f 22//31 20//31 18//31
f 18//31 16//31 22//31
f 16//31 14//31 22//31
f 14//31 12//31 10//31
f 10//31 8//31 6//31
f 62//31 58//31 6//31
f 58//31 54//31 6//31
f 38//31 34//31 22//31
f 34//31 30//31 22//31
f 30//31 26//31 22//31
f 14//31 10//31 22//31
f 10//31 6//31 22//31
f 54//31 46//31 38//31
f 6//31 54//31 22//31
f 62//32 64//32 63//32
f 64//33 1//33 3//33
f 63//34 3//34 2//34
f 2//34 5//34 7//34
f 7//34 9//34 11//34
f 11//34 13//34 7//34
f 13//34 15//34 7//34
f 15//34 17//34 19//34
f 19//34 21//34 15//34
f 21//34 23//34 15//34
f 23//34 25//34 31//34
f 25//34 27//34 31//34
f 27//34 29//34 31//34
f 31//34 33//34 35//34
f 35//34 37//34 39//34
f 39//34 41//34 43//34
f 43//34 45//34 47//34
f 47//34 49//34 51//34
f 51//34 53//34 55//34
f 55//34 57//34 63//34
f 57//34 59//34 63//34
f 59//34 61//34 63//34
f 63//34 2//34 7//34
f 31//34 35//34 47//34
f 35//34 39//34 47//34
f 39//34 43//34 47//34
f 47//34 51//34 63//34
f 51//34 55//34 63//34
f 63//34 7//34 15//34
f 15//34 23//34 31//34
f 63//34 15//34 47//34
o Cone
v 0.000000 4.000000 -0.999999
v 0.000000 6.000000 0.000001
v 0.195090 4.000000 -0.980784
v 0.382683 4.000000 -0.923879
v 0.555570 4.000000 -0.831469
v 0.707107 4.000000 -0.707106
v 0.831470 4.000000 -0.555569
v 0.923880 4.000000 -0.382682
v 0.980785 4.000000 -0.195089
v 1.000000 4.000000 0.000001
v 0.980785 4.000000 0.195091
v 0.923880 4.000000 0.382684
v 0.831470 4.000000 0.555571
v 0.707107 4.000000 0.707108
v 0.555570 4.000000 0.831471
v 0.382683 4.000000 0.923881
v 0.195090 4.000000 0.980786
v 0.000000 4.000000 1.000001
v -0.195091 4.000000 0.980786
v -0.382684 4.000000 0.923880
v -0.555571 4.000000 0.831470
v -0.707107 4.000000 0.707107
v -0.831470 4.000000 0.555571
v -0.923880 4.000000 0.382684
v -0.980785 4.000000 0.195090
v -1.000000 4.000000 -0.000000
v -0.980785 4.000000 -0.195090
v -0.923879 4.000000 -0.382683
v -0.831469 4.000000 -0.555570
v -0.707106 4.000000 -0.707107
v -0.555569 4.000000 -0.831469
v -0.382682 4.000000 -0.923879
v -0.195089 4.000000 -0.980785
vn 0.0878 0.4455 -0.8910
vn 0.2599 0.4455 -0.8567
vn 0.4220 0.4455 -0.7896
vn 0.5680 0.4455 -0.6921
vn 0.6921 0.4455 -0.5680
vn 0.7896 0.4455 -0.4220
vn 0.8567 0.4455 -0.2599
vn 0.8910 0.4455 -0.0878
vn 0.8910 0.4455 0.0878
vn 0.8567 0.4455 0.2599
vn 0.7896 0.4455 0.4220
vn 0.6921 0.4455 0.5680
vn 0.5680 0.4455 0.6921
vn 0.4220 0.4455 0.7896
vn 0.2599 0.4455 0.8567
vn 0.0878 0.4455 0.8910
vn -0.0878 0.4455 0.8910
vn -0.2599 0.4455 0.8567
vn -0.4220 0.4455 0.7896
vn -0.5680 0.4455 0.6921
vn -0.6921 0.4455 0.5680
vn -0.7896 0.4455 0.4220
vn -0.8567 0.4455 0.2599
vn -0.8910 0.4455 0.0878
vn -0.8910 0.4455 -0.0878
vn -0.8567 0.4455 -0.2599
vn -0.7896 0.4455 -0.4220
vn -0.6921 0.4455 -0.5680
vn -0.5680 0.4455 -0.6921
vn -0.4220 0.4455 -0.7896
vn -0.2599 0.4455 -0.8567
vn -0.0878 0.4455 -0.8910
vn 0.0000 -1.0000 0.0000
usemtl None
s 1
f 65//35 66//35 67//35
f 67//36 66//36 68//36
f 68//37 66//37 69//37
f 69//38 66//38 70//38
f 70//39 66//39 71//39
f 71//40 66//40 72//40
f 72//41 66//41 73//41
f 73//42 66//42 74//42
f 74//43 66//43 75//43
f 75//44 66//44 76//44
f 76//45 66//45 77//45
f 77//46 66//46 78//46
f 78//47 66//47 79//47
f 79//48 66//48 80//48
f 80//49 66//49 81//49
f 81//50 66//50 82//50
f 82//51 66//51 83//51
f 83//52 66//52 84//52
f 84//53 66//53 85//53
f 85//54 66//54 86//54
f 86//55 66//55 87//55
f 87//56 66//56 88//56
f 88//57 66//57 89//57
f 89//58 66//58 90//58
f 90//59 66//59 91//59
f 91//60 66//60 92//60
f 92//61 66//61 93//61
f 93//62 66//62 94//62
f 94//63 66//63 95//63
f 95//64 66//64 96//64
f 96//65 66//65 97//65
f 97//66 66//66 65//66
f 73//67 81//67 89//67
f 97//67 65//67 67//67
f 67//67 68//67 69//67
f 69//67 70//67 71//67
f 71//67 72//67 69//67
f 72//67 73//67 69//67
f 73//67 74//67 75//67
f 75//67 76//67 73//67
f 76//67 77//67 73//67
f 77//67 78//67 81//67
f 78//67 79//67 81//67
f 79//67 80//67 81//67
f 81//67 82//67 83//67
f 83//67 84//67 85//67
f 85//67 86//67 87//67
f 87//67 88//67 89//67
f 89//67 90//67 91//67
f 91//67 92//67 93//67
f 93//67 94//67 97//67
f 94//67 95//67 97//67
f 95//67 96//67 97//67
f 97//67 67//67 69//67
f 81//67 83//67 89//67
f 83//67 85//67 89//67
f 85//67 87//67 89//67
f 89//67 91//67 97//67
f 91//67 93//67 97//67
f 97//67 69//67 73//67
f 73//67 77//67 81//67
f 97//67 73//67 89//67
